<svg display="none" xmlns="http://www.w3.org/2000/svg">
    <symbol id="group" viewBox="0 0 13 14">
        <path d="M11.79 1.61564C12.3029 0.959102 11.8351 0 11.002 0H1.00186C0.168707 0 -0.299092 0.959101 0.213831 1.61564L5.03983 7.72867C5.1772 7.90449 5.25181 8.1212 5.25181 8.34432V13.7961C5.25181 13.9743 5.46724 14.0635 5.59323 13.9375L6.60536 12.9254C6.69913 12.8316 6.75181 12.7044 6.75181 12.5718V8.34432C6.75181 8.1212 6.82643 7.90449 6.96379 7.72867L11.79 1.61564Z" fill="#464F60"/>
    </symbol>
    <symbol id="search" viewBox="0 0 14 14">
        <path fill-rule="evenodd" clip-rule="evenodd" d="M9.68208 10.7458C8.66576 11.5361 7.38866 12.0067 6.00167 12.0067C2.68704 12.0067 0 9.31891 0 6.00335C0 2.68779 2.68704 0 6.00167 0C9.31631 0 12.0033 2.68779 12.0033 6.00335C12.0033 7.39059 11.533 8.66794 10.743 9.6845L13.7799 12.7186C14.0731 13.0115 14.0734 13.4867 13.7806 13.7799C13.4878 14.0731 13.0128 14.0734 12.7196 13.7805L9.68208 10.7458ZM10.5029 6.00335C10.5029 8.49002 8.48765 10.5059 6.00167 10.5059C3.5157 10.5059 1.50042 8.49002 1.50042 6.00335C1.50042 3.51668 3.5157 1.50084 6.00167 1.50084C8.48765 1.50084 10.5029 3.51668 10.5029 6.00335Z"/>
    </symbol>
    <symbol id="plus" viewBox="0 0 12 12">
        <path fill-rule="evenodd" clip-rule="evenodd" d="M5.99999 0C6.4142 0 6.74999 0.335786 6.74999 0.75V5.25H11.25C11.6642 5.25 12 5.58579 12 6C12 6.41422 11.6642 6.75 11.25 6.75H6.74999V11.25C6.74999 11.6642 6.4142 12 5.99999 12C5.58578 12 5.24999 11.6642 5.24999 11.25V6.75H0.75C0.335786 6.75 0 6.41422 0 6C0 5.58579 0.335786 5.25 0.75 5.25H5.24999V0.75C5.24999 0.335786 5.58578 0 5.99999 0Z"/>
    </symbol>
    <symbol id="sort" viewBox="0 0 16 16">
        <path d="M8.39043 13.512C8.19027 13.7622 7.80973 13.7622 7.60957 13.512L4.64988 9.81235C4.38797 9.48497 4.62106 9 5.04031 9H10.9597C11.3789 9 11.612 9.48497 11.3501 9.81235L8.39043 13.512Z" />
        <path d="M8.39043 2.48804C8.19027 2.23784 7.80973 2.23784 7.60957 2.48804L4.64988 6.18765C4.38797 6.51503 4.62106 7 5.04031 7H10.9597C11.3789 7 11.612 6.51503 11.3501 6.18765L8.39043 2.48804Z"/>
    </symbol>
    <symbol id="point-right" viewBox="0 0 25 25" width="25" height="25">
        <path d="M6.5 11L9.5 8L6.5 5" stroke="#868FA0" stroke-width="1.5" stroke-height="2" stroke-linecap="round" stroke-linejoin="round"/>
    </symbol>
    <symbol id="moon" height="1em" viewBox="0 0 384 512">
        <path d="M223.5 32C100 32 0 132.3 0 256S100 480 223.5 480c60.6 0 115.5-24.2 155.8-63.4c5-4.9 6.3-12.5 3.1-18.7s-10.1-9.7-17-8.5c-9.8 1.7-19.8 2.6-30.1 2.6c-96.9 0-175.5-78.8-175.5-176c0-65.8 36-123.1 89.3-153.3c6.1-3.5 9.2-10.5 7.7-17.3s-7.3-11.9-14.3-12.5c-6.3-.5-12.6-.8-19-.8z"/>
    </symbol>
    <symbol id="sun" height="1em" viewBox="0 0 512 512">
        <path d="M375.7 19.7c-1.5-8-6.9-14.7-14.4-17.8s-16.1-2.2-22.8 2.4L256 61.1 173.5 4.2c-6.7-4.6-15.3-5.5-22.8-2.4s-12.9 9.8-14.4 17.8l-18.1 98.5L19.7 136.3c-8 1.5-14.7 6.9-17.8 14.4s-2.2 16.1 2.4 22.8L61.1 256 4.2 338.5c-4.6 6.7-5.5 15.3-2.4 22.8s9.8 13 17.8 14.4l98.5 18.1 18.1 98.5c1.5 8 6.9 14.7 14.4 17.8s16.1 2.2 22.8-2.4L256 450.9l82.5 56.9c6.7 4.6 15.3 5.5 22.8 2.4s12.9-9.8 14.4-17.8l18.1-98.5 98.5-18.1c8-1.5 14.7-6.9 17.8-14.4s2.2-16.1-2.4-22.8L450.9 256l56.9-82.5c4.6-6.7 5.5-15.3 2.4-22.8s-9.8-12.9-17.8-14.4l-98.5-18.1L375.7 19.7zM269.6 110l65.6-45.2 14.4 78.3c1.8 9.8 9.5 17.5 19.3 19.3l78.3 14.4L402 242.4c-5.7 8.2-5.7 19 0 27.2l45.2 65.6-78.3 14.4c-9.8 1.8-17.5 9.5-19.3 19.3l-14.4 78.3L269.6 402c-8.2-5.7-19-5.7-27.2 0l-65.6 45.2-14.4-78.3c-1.8-9.8-9.5-17.5-19.3-19.3L64.8 335.2 110 269.6c5.7-8.2 5.7-19 0-27.2L64.8 176.8l78.3-14.4c9.8-1.8 17.5-9.5 19.3-19.3l14.4-78.3L242.4 110c8.2 5.7 19 5.7 27.2 0zM256 368a112 112 0 1 0 0-224 112 112 0 1 0 0 224zM192 256a64 64 0 1 1 128 0 64 64 0 1 1 -128 0z"/>
    </symbol>

</svg>